<?xml version="1.0" encoding="utf-8"?>
<!-- Generator: Adobe Illustrator 16.0.3, SVG Export Plug-In . SVG Version: 6.00 Build 0)  -->
<!DOCTYPE svg PUBLIC "-//W3C//DTD SVG 1.1//EN" "http://www.w3.org/Graphics/SVG/1.1/DTD/svg11.dtd">
<svg version="1.1" xmlns="http://www.w3.org/2000/svg" xmlns:xlink="http://www.w3.org/1999/xlink" x="0px" y="0px" width="400px"
	 height="500px" viewBox="0 0 400 500" enable-background="new 0 0 400 500" xml:space="preserve">
<filter  id="AI_GaussianBlur_10">
	<feGaussianBlur  stdDeviation="10"></feGaussianBlur>
</filter>
<g id="Guides">
</g>
<g id="Layer_1">
	<g>
		<g filter="url(#AI_GaussianBlur_10)">
			<circle fill="none" cx="200" cy="200" r="137.5"/>
		</g>
		<path fill="#641600" stroke="#280F00" stroke-width="7" stroke-miterlimit="10" d="M200,50c-82.842,0-150,67.157-150,150
			c0,40.526,15.63,77.733,42.189,104.292C158.798,370.901,200,500,200,500s41.202-129.099,107.811-195.708
			C334.369,277.733,350,240.526,350,200C350,117.157,282.842,50,200,50z M200,312.5c-62.133,0-112.5-50.367-112.5-112.5
			c0-62.132,50.368-112.5,112.5-112.5c62.131,0,112.5,50.369,112.5,112.5C312.5,262.133,262.132,312.5,200,312.5z"/>
	</g>
</g>
</svg>
